/* XPM */
static char *page_save[] = {
/* columns rows colors chars-per-pixel */
"16 16 197 2",
"   c #84BF51",
".  c #84BF54",
"X  c #98C96F",
"o  c #99C971",
"O  c #2E5FA6",
"+  c #3A69AA",
"@  c #3E6AAB",
"#  c #3065BA",
"$  c #3066BA",
"%  c #3166BB",
"&  c #3368BA",
"*  c #3369BC",
"=  c #3871BF",
"-  c #446DAB",
";  c #4470B0",
":  c #4279BF",
">  c #577EBB",
",  c #3B76C4",
"<  c #3C78C1",
"1  c #457EC2",
"2  c #407CC4",
"3  c #537FC1",
"4  c #517FC3",
"5  c #5D84BF",
"6  c #4582C5",
"7  c #4682C4",
"8  c #4784C6",
"9  c #4985C4",
"0  c #4B88C5",
"q  c #4B89C5",
"w  c #4988C6",
"e  c #4A88C6",
"r  c #4B89C6",
"t  c #4C89C6",
"y  c #4F8BC7",
"u  c #4D8BC8",
"i  c #4F8CC8",
"p  c #4F8DC8",
"a  c #4F8CC9",
"s  c #5481C4",
"d  c #5583C6",
"f  c #5884C3",
"g  c #5B86C7",
"h  c #5D88C8",
"j  c #618AC7",
"k  c #6089C9",
"l  c #618BC9",
"z  c #628BC8",
"x  c #658DCA",
"c  c #658DCC",
"v  c #6C8BCD",
"b  c #688ECD",
"n  c #6990CD",
"m  c #6E93CC",
"M  c #688BD3",
"N  c #6E8AD7",
"B  c #6D8BDA",
"V  c #6C8DDC",
"C  c #6E97D4",
"Z  c #6492DB",
"A  c #6594DB",
"S  c #7198D0",
"D  c #7399D1",
"F  c #759AD0",
"G  c #739AD4",
"H  c #799CD5",
"J  c #7B9ED4",
"K  c #779ED9",
"L  c #789ED8",
"P  c #789FD8",
"I  c #799FDB",
"U  c #7B9CDD",
"Y  c #79A0D9",
"T  c #7AA0D9",
"R  c #7CA3DB",
"E  c #7BA1DC",
"W  c #7DA3DE",
"Q  c #7EA5DD",
"!  c #708FE1",
"~  c #54B5F7",
"^  c #53B2F8",
"/  c #53B4F8",
"(  c #55B4F8",
")  c #7DB0E1",
"_  c #7DB2E2",
"`  c #65BEFB",
"'  c #64BEFC",
"]  c #68BFFD",
"[  c #6EC2FD",
"{  c #C7EE87",
"}  c #C7EE8C",
"|  c #D7F4A2",
" . c #D7F6A2",
".. c #82A4D6",
"X. c #85A2DD",
"o. c #80A6DD",
"O. c #85A8DD",
"+. c #81A7E1",
"@. c #81A7E2",
"#. c #8CAFE4",
"$. c #84B6E2",
"%. c #92B5E6",
"&. c #97B6EA",
"*. c #9AB6EF",
"=. c #99B8EA",
"-. c #A1BFEA",
";. c #A1BFEF",
":. c #9EC0EF",
">. c #98D7FF",
",. c #9BD6FF",
"<. c #9ED7FF",
"1. c #B3C7E3",
"2. c #BACEEF",
"3. c #B0CDF3",
"4. c #B3D2F1",
"5. c #B5D4F3",
"6. c #B8D6F4",
"7. c #BAD6F5",
"8. c #BBD6F5",
"9. c #B4D8F6",
"0. c #BCD9F6",
"q. c #FFFFDD",
"w. c #C1DBF8",
"e. c #C2DCF8",
"r. c #C4DDF9",
"t. c #C5DFF9",
"y. c #C7E0FA",
"u. c #C8E0F9",
"i. c #C8E0FA",
"p. c #C8E0FB",
"a. c #CAE1FA",
"s. c #C9E2FB",
"d. c #CBE2FB",
"f. c #CDE3FB",
"g. c #C9E5FA",
"h. c #CDE3FC",
"j. c #CFE3FC",
"k. c #CFE4FC",
"l. c #CDE6FC",
"z. c #D7E6F2",
"x. c #DFE9F4",
"c. c #DFEBF5",
"v. c #DCEAF6",
"b. c #DEEAF6",
"n. c #DFECF7",
"m. c #D1E4FC",
"M. c #D3E5FD",
"N. c #D2E6FC",
"B. c #D3E6FC",
"V. c #D3E7FD",
"C. c #D4E6FD",
"Z. c #D5E6FD",
"A. c #D5E7FD",
"S. c #D6E7FD",
"D. c #D6E7FE",
"F. c #D7E7FE",
"G. c #D6E8FE",
"H. c #D7E8FE",
"J. c #D8E8FE",
"K. c #E9F4E4",
"L. c #E5F1ED",
"P. c #E6F1ED",
"I. c #E6F0EF",
"U. c #E6F1EF",
"Y. c #E8F3EA",
"T. c #FFFFE0",
"R. c #E3EDF7",
"E. c #E9EFF5",
"W. c #E6F0F7",
"Q. c #EAF3F3",
"!. c #EDF5F3",
"~. c #ECF2F7",
"^. c #EAF1F8",
"/. c #EBF2F8",
"(. c #ECF2F8",
"). c #EDF3F8",
"_. c #ECF3F9",
"`. c #EDF4F9",
"'. c #EEF4F8",
"]. c #EFF4F9",
"[. c #F0F4F8",
"{. c #F0F4F9",
"}. c #F1F5F9",
"|. c #F2F6FA",
" X c #F3F7FB",
".X c #F1F8FF",
"XX c #F7FBFF",
"oX c #F8FBFD",
"OX c #FAFBFD",
"+X c #F8FBFF",
"@X c #FAFCFD",
"#X c #FBFCFD",
"$X c #FBFCFE",
"%X c #FCFDFE",
"&X c #FDFDFE",
"*X c #FFFFFF",
"=X c None",
/* pixels */
"=Xu i i i i i y t , =X=X=X=X=X=X",
"9 ~.'.).).).).~.z._ A =X=X=X=X=X",
"t }.y.s.t.r.w.6.+X9._ Z =X=X=X=X",
"t }.h.f.f.s.w.8.+Xl.g.$.: =X=X=X",
"r }.h.m.h.s.r.0.R.).}.E.1 =X=X=X",
"r }.V.V.m.f.t.w.6.5.4.}.7 =X=X=X",
"9 '.G.D.D.V.C J S ..b b F D z =X",
"r '.G.J.D.m.c 3.*X1.*X*X*X*X-.z ",
"8 ).G.Z.D.D.g :.*Xm *X*XXX X#.j ",
"7 ~.D.Z.D.D.h ;.OX+X*X*XOXOXO.3 ",
"< ^.( ~ / / x &.o.o.R I Y K K 5 ",
"< R.[ ,.,.>.z %.+.+.W I I K D > ",
", v.[ ` ' ' d &.Q.L.Q.L.L.!.H ; ",
"& W.v.v.v.v.3 *.Y.  X o . K.U + ",
"=X$ $ $ $ $ d 2.q.{ | | } T.X.@ ",
"=X=X=X=X=X=X$ f M ! V B N v - O "
};
